<svg width="67" height="19" viewBox="0 0 67 19" fill="none" xmlns="http://www.w3.org/2000/svg">
<path d="M0.517045 18H11.6903V14.9574H4.20739V0.545454H0.517045V18ZM29.4943 9.27273C29.4943 3.5625 25.9489 0.306818 21.321 0.306818C16.6676 0.306818 13.1477 3.5625 13.1477 9.27273C13.1477 14.9574 16.6676 18.2386 21.321 18.2386C25.9489 18.2386 29.4943 14.983 29.4943 9.27273ZM25.7528 9.27273C25.7528 12.9716 23.9972 14.9744 21.321 14.9744C18.6364 14.9744 16.8892 12.9716 16.8892 9.27273C16.8892 5.57386 18.6364 3.57102 21.321 3.57102C23.9972 3.57102 25.7528 5.57386 25.7528 9.27273ZM43.8018 6.1875H47.5518C47.0746 2.73579 44.032 0.306818 40.0859 0.306818C35.4751 0.306818 31.9212 3.63068 31.9212 9.28977C31.9212 14.8125 35.245 18.2386 40.1626 18.2386C44.5689 18.2386 47.7138 15.4517 47.7138 10.858V8.65909H40.4098V11.4375H44.1598C44.1087 13.6023 42.6342 14.9744 40.1797 14.9744C37.4098 14.9744 35.6626 12.9034 35.6626 9.25568C35.6626 5.625 37.478 3.57102 40.1456 3.57102C42.0462 3.57102 43.3331 4.55114 43.8018 6.1875ZM66.5256 9.27273C66.5256 3.5625 62.9801 0.306818 58.3523 0.306818C53.6989 0.306818 50.179 3.5625 50.179 9.27273C50.179 14.9574 53.6989 18.2386 58.3523 18.2386C62.9801 18.2386 66.5256 14.983 66.5256 9.27273ZM62.7841 9.27273C62.7841 12.9716 61.0284 14.9744 58.3523 14.9744C55.6676 14.9744 53.9205 12.9716 53.9205 9.27273C53.9205 5.57386 55.6676 3.57102 58.3523 3.57102C61.0284 3.57102 62.7841 5.57386 62.7841 9.27273Z" fill="white"/>
</svg>
